<svg xmlns="http://www.w3.org/2000/svg" version="1.1" height="304" width="488" viewBox="0 0 488 304" class="diagram" text-anchor="middle" font-family="monospace" font-size="13px">
<path d="M 8,64 L 8,128" fill="none" stroke="black"/>
<path d="M 56,192 L 56,256" fill="none" stroke="black"/>
<path d="M 72,16 L 72,64" fill="none" stroke="black"/>
<path d="M 72,192 L 72,224" fill="none" stroke="black"/>
<path d="M 96,64 L 96,128" fill="none" stroke="black"/>
<path d="M 136,16 L 136,32" fill="none" stroke="black"/>
<path d="M 152,32 L 152,80" fill="none" stroke="black"/>
<path d="M 200,64 L 200,128" fill="none" stroke="black"/>
<path d="M 216,192 L 216,224" fill="none" stroke="black"/>
<path d="M 232,192 L 232,256" fill="none" stroke="black"/>
<path d="M 272,64 L 272,128" fill="none" stroke="black"/>
<path d="M 280,176 L 280,224" fill="none" stroke="black"/>
<path d="M 304,64 L 304,128" fill="none" stroke="black"/>
<path d="M 352,16 L 352,64" fill="none" stroke="black"/>
<path d="M 360,176 L 360,224" fill="none" stroke="black"/>
<path d="M 376,64 L 376,128" fill="none" stroke="black"/>
<path d="M 384,176 L 384,240" fill="none" stroke="black"/>
<path d="M 408,16 L 408,32" fill="none" stroke="black"/>
<path d="M 424,32 L 424,80" fill="none" stroke="black"/>
<path d="M 480,176 L 480,240" fill="none" stroke="black"/>
<path d="M 72,16 L 136,16" fill="none" stroke="black"/>
<path d="M 352,16 L 408,16" fill="none" stroke="black"/>
<path d="M 136,32 L 152,32" fill="none" stroke="black"/>
<path d="M 408,32 L 424,32" fill="none" stroke="black"/>
<path d="M 8,64 L 96,64" fill="none" stroke="black"/>
<path d="M 200,64 L 272,64" fill="none" stroke="black"/>
<path d="M 304,64 L 376,64" fill="none" stroke="black"/>
<path d="M 96,80 L 152,80" fill="none" stroke="black"/>
<path d="M 376,80 L 424,80" fill="none" stroke="black"/>
<path d="M 272,96 L 296,96" fill="none" stroke="black"/>
<path d="M 8,128 L 96,128" fill="none" stroke="black"/>
<path d="M 200,128 L 272,128" fill="none" stroke="black"/>
<path d="M 304,128 L 376,128" fill="none" stroke="black"/>
<path d="M 280,176 L 360,176" fill="none" stroke="black"/>
<path d="M 384,176 L 480,176" fill="none" stroke="black"/>
<path d="M 56,192 L 232,192" fill="none" stroke="black"/>
<path d="M 72,224 L 216,224" fill="none" stroke="black"/>
<path d="M 280,224 L 360,224" fill="none" stroke="black"/>
<path d="M 384,240 L 480,240" fill="none" stroke="black"/>
<path d="M 56,256 L 232,256" fill="none" stroke="black"/>
<path d="M 80,128 L 108,184" fill="none" stroke="black"/>
<path d="M 256,128 L 276,168" fill="none" stroke="black"/>
<path d="M 360,128 L 380,168" fill="none" stroke="black"/>
<path d="M 176,192 L 204,136" fill="none" stroke="black"/>
<path d="M 136,16 C 144.83064,16 152,23.16936 152,32" fill="none" stroke="black"/>
<path d="M 408,16 C 416.83064,16 424,23.16936 424,32" fill="none" stroke="black"/>
<polygon class="arrowhead" points="388,168 376,162.4 376,173.6" fill="black" transform="rotate(63.43494882292201,380,168)"/>
<polygon class="arrowhead" points="304,96 292,90.4 292,101.6" fill="black" transform="rotate(0,296,96)"/>
<polygon class="arrowhead" points="284,168 272,162.4 272,173.6" fill="black" transform="rotate(63.43494882292201,276,168)"/>
<polygon class="arrowhead" points="212,136 200,130.4 200,141.6" fill="black" transform="rotate(296.565051177078,204,136)"/>
<polygon class="arrowhead" points="116,184 104,178.4 104,189.6" fill="black" transform="rotate(63.43494882292201,108,184)"/>
<g class="text">
<text x="112" y="52">Ruleset</text>
<text x="388" y="52">config</text>
<text x="52" y="100">auditctl</text>
<text x="236" y="100">auditd</text>
<text x="340" y="100">Laurel</text>
<text x="160" y="148">raw</text>
<text x="48" y="164">configure</text>
<text x="164" y="164">events</text>
<text x="320" y="196">log files</text>
<text x="420" y="196">enriched</text>
<text x="144" y="212">Audit subsystem</text>
<text x="320" y="212">(KV mess)</text>
<text x="424" y="212">log files</text>
<text x="432" y="228">(JSONlines)</text>
<text x="116" y="244">Linux Kernel</text>
</g>
</svg>
