<svg xmlns="http://www.w3.org/2000/svg" version="1.1" height="448" width="776" viewBox="0 0 776 448" class="diagram" text-anchor="middle" font-family="monospace" font-size="13px">
<path d="M 8,16 L 8,64" fill="none" stroke="black"/>
<path d="M 8,176 L 8,304" fill="none" stroke="black"/>
<path d="M 24,352 L 24,432" fill="none" stroke="black"/>
<path d="M 72,16 L 72,32" fill="none" stroke="black"/>
<path d="M 88,32 L 88,64" fill="none" stroke="black"/>
<path d="M 120,16 L 120,64" fill="none" stroke="black"/>
<path d="M 136,96 L 136,144" fill="none" stroke="black"/>
<path d="M 136,176 L 136,304" fill="none" stroke="black"/>
<path d="M 160,16 L 160,64" fill="none" stroke="black"/>
<path d="M 168,352 L 168,432" fill="none" stroke="black"/>
<path d="M 184,96 L 184,144" fill="none" stroke="black"/>
<path d="M 216,96 L 216,144" fill="none" stroke="black"/>
<path d="M 264,272 L 264,320" fill="none" stroke="black"/>
<path d="M 288,96 L 288,112" fill="none" stroke="black"/>
<path d="M 288,176 L 288,224" fill="none" stroke="black"/>
<path d="M 304,112 L 304,144" fill="none" stroke="black"/>
<path d="M 328,176 L 328,224" fill="none" stroke="black"/>
<path d="M 352,272 L 352,288" fill="none" stroke="black"/>
<path d="M 360,176 L 360,224" fill="none" stroke="black"/>
<path d="M 368,288 L 368,320" fill="none" stroke="black"/>
<path d="M 424,176 L 424,192" fill="none" stroke="black"/>
<path d="M 440,192 L 440,224" fill="none" stroke="black"/>
<path d="M 456,256 L 456,304" fill="none" stroke="black"/>
<path d="M 496,256 L 496,304" fill="none" stroke="black"/>
<path d="M 528,256 L 528,304" fill="none" stroke="black"/>
<path d="M 576,256 L 576,272" fill="none" stroke="black"/>
<path d="M 592,272 L 592,304" fill="none" stroke="black"/>
<path d="M 8,16 L 72,16" fill="none" stroke="black"/>
<path d="M 120,16 L 160,16" fill="none" stroke="black"/>
<path d="M 72,32 L 88,32" fill="none" stroke="black"/>
<path d="M 96,48 L 112,48" fill="none" stroke="black"/>
<path d="M 8,64 L 88,64" fill="none" stroke="black"/>
<path d="M 120,64 L 160,64" fill="none" stroke="black"/>
<path d="M 136,96 L 184,96" fill="none" stroke="black"/>
<path d="M 216,96 L 288,96" fill="none" stroke="black"/>
<path d="M 288,112 L 304,112" fill="none" stroke="black"/>
<path d="M 96,128 L 128,128" fill="none" stroke="black"/>
<path d="M 192,128 L 208,128" fill="none" stroke="black"/>
<path d="M 136,144 L 184,144" fill="none" stroke="black"/>
<path d="M 216,144 L 304,144" fill="none" stroke="black"/>
<path d="M 8,176 L 136,176" fill="none" stroke="black"/>
<path d="M 256,176 L 328,176" fill="none" stroke="black"/>
<path d="M 360,176 L 424,176" fill="none" stroke="black"/>
<path d="M 424,192 L 440,192" fill="none" stroke="black"/>
<path d="M 336,208 L 352,208" fill="none" stroke="black"/>
<path d="M 288,224 L 328,224" fill="none" stroke="black"/>
<path d="M 360,224 L 440,224" fill="none" stroke="black"/>
<path d="M 456,256 L 496,256" fill="none" stroke="black"/>
<path d="M 528,256 L 576,256" fill="none" stroke="black"/>
<path d="M 264,272 L 352,272" fill="none" stroke="black"/>
<path d="M 424,272 L 448,272" fill="none" stroke="black"/>
<path d="M 576,272 L 592,272" fill="none" stroke="black"/>
<path d="M 352,288 L 448,288" fill="none" stroke="black"/>
<path d="M 504,288 L 520,288" fill="none" stroke="black"/>
<path d="M 8,304 L 136,304" fill="none" stroke="black"/>
<path d="M 232,304 L 256,304" fill="none" stroke="black"/>
<path d="M 456,304 L 496,304" fill="none" stroke="black"/>
<path d="M 528,304 L 592,304" fill="none" stroke="black"/>
<path d="M 264,320 L 368,320" fill="none" stroke="black"/>
<path d="M 24,352 L 168,352" fill="none" stroke="black"/>
<path d="M 176,368 L 200,368" fill="none" stroke="black"/>
<path d="M 24,432 L 168,432" fill="none" stroke="black"/>
<path d="M 244,152 L 256,176" fill="none" stroke="black"/>
<path d="M 404,232 L 424,272" fill="none" stroke="black"/>
<path d="M 76,168 L 96,128" fill="none" stroke="black"/>
<path d="M 200,368 L 232,304" fill="none" stroke="black"/>
<path d="M 72,16 C 80.83064,16 88,23.16936 88,32" fill="none" stroke="black"/>
<path d="M 288,96 C 296.83064,96 304,103.16936 304,112" fill="none" stroke="black"/>
<path d="M 424,176 C 432.83064,176 440,183.16936 440,192" fill="none" stroke="black"/>
<path d="M 576,256 C 584.83064,256 592,263.16936 592,272" fill="none" stroke="black"/>
<path d="M 352,272 C 360.83064,272 368,279.16936 368,288" fill="none" stroke="black"/>
<polygon class="arrowhead" points="528,288 516,282.4 516,293.6" fill="black" transform="rotate(0,520,288)"/>
<polygon class="arrowhead" points="456,288 444,282.4 444,293.6" fill="black" transform="rotate(0,448,288)"/>
<polygon class="arrowhead" points="456,272 444,266.4 444,277.6" fill="black" transform="rotate(0,448,272)"/>
<polygon class="arrowhead" points="360,208 348,202.4 348,213.6" fill="black" transform="rotate(0,352,208)"/>
<polygon class="arrowhead" points="288,176 276,170.4 276,181.6" fill="black" transform="rotate(0,280,176)"/>
<polygon class="arrowhead" points="264,304 252,298.4 252,309.6" fill="black" transform="rotate(0,256,304)"/>
<polygon class="arrowhead" points="216,128 204,122.4 204,133.6" fill="black" transform="rotate(0,208,128)"/>
<polygon class="arrowhead" points="136,128 124,122.4 124,133.6" fill="black" transform="rotate(0,128,128)"/>
<polygon class="arrowhead" points="120,48 108,42.4 108,53.6" fill="black" transform="rotate(0,112,48)"/>
<g class="text">
<text x="48" y="52">hello.c</text>
<text x="140" y="52">cc</text>
<text x="136" y="84">\</text>
<text x="160" y="132">cc1</text>
<text x="260" y="132">$tmpfile</text>
<text x="72" y="196">stdc-predef.h</text>
<text x="52" y="212">config.h</text>
<text x="308" y="212">as</text>
<text x="400" y="212">hello.ö</text>
<text x="68" y="228">src/system.h</text>
<text x="52" y="244">locale.h</text>
<text x="60" y="260">features.h</text>
<text x="60" y="276">wordsize.h</text>
<text x="24" y="292">…</text>
<text x="476" y="292">ld</text>
<text x="560" y="292">hello</text>
<text x="316" y="308">libhello.a</text>
<text x="72" y="372">c-ctype.o</text>
<text x="92" y="388">c-strcasecmp.ö</text>
<text x="96" y="404">c-strncasecmp.ö</text>
<text x="40" y="420">…</text>
</g>
</svg>
