<svg xmlns="http://www.w3.org/2000/svg" version="1.1" height="224" width="528" viewBox="0 0 528 224" class="diagram" text-anchor="middle" font-family="monospace" font-size="13px">
<path d="M 8,48 L 8,160" fill="none" stroke="black"/>
<path d="M 136,48 L 136,160" fill="none" stroke="black"/>
<path d="M 248,144 L 248,192" fill="none" stroke="black"/>
<path d="M 272,32 L 272,64" fill="none" stroke="black"/>
<path d="M 328,32 L 328,64" fill="none" stroke="black"/>
<path d="M 368,144 L 368,192" fill="none" stroke="black"/>
<path d="M 416,96 L 416,128" fill="none" stroke="black"/>
<path d="M 472,96 L 472,128" fill="none" stroke="black"/>
<path d="M 272,32 L 328,32" fill="none" stroke="black"/>
<path d="M 8,48 L 136,48" fill="none" stroke="black"/>
<path d="M 224,48 L 264,48" fill="none" stroke="black"/>
<path d="M 336,48 L 400,48" fill="none" stroke="black"/>
<path d="M 272,64 L 328,64" fill="none" stroke="black"/>
<path d="M 8,78 L 136,78" fill="none" stroke="black"/><path d="M 8,82 L 136,82" fill="none" stroke="black"/>
<path d="M 144,96 L 200,96" fill="none" stroke="black"/>
<path d="M 416,96 L 472,96" fill="none" stroke="black"/>
<path d="M 8,112 L 136,112" fill="none" stroke="black"/>
<path d="M 144,128 L 200,128" fill="none" stroke="black"/>
<path d="M 416,128 L 472,128" fill="none" stroke="black"/>
<path d="M 248,144 L 368,144" fill="none" stroke="black"/>
<path d="M 8,160 L 136,160" fill="none" stroke="black"/>
<path d="M 224,176 L 240,176" fill="none" stroke="black"/>
<path d="M 376,176 L 400,176" fill="none" stroke="black"/>
<path d="M 248,192 L 368,192" fill="none" stroke="black"/>
<path d="M 200,128 L 224,176" fill="none" stroke="black"/>
<path d="M 400,48 L 420,88" fill="none" stroke="black"/>
<path d="M 200,96 L 224,48" fill="none" stroke="black"/>
<path d="M 400,176 L 420,136" fill="none" stroke="black"/>
<polygon class="arrowhead" points="428,88 416,82.4 416,93.6" fill="black" transform="rotate(63.43494882292201,420,88)"/>
<polygon class="arrowhead" points="384,176 372,170.4 372,181.6" fill="black" transform="rotate(180,376,176)"/>
<polygon class="arrowhead" points="272,48 260,42.4 260,53.6" fill="black" transform="rotate(0,264,48)"/>
<polygon class="arrowhead" points="152,128 140,122.4 140,133.6" fill="black" transform="rotate(180,144,128)"/>
<g class="text">
<text x="388" y="36">Alerts</text>
<text x="180" y="52">Events</text>
<text x="300" y="52">SIEM</text>
<text x="68" y="68">Linux Server</text>
<text x="180" y="68">Logs</text>
<text x="72" y="100">auditd+laurel</text>
<text x="444" y="116">SOAR</text>
<text x="68" y="132">Velociraptor</text>
<text x="44" y="148">Client</text>
<text x="308" y="164">Velociraptor</text>
<text x="472" y="164">schedule jobs</text>
<text x="184" y="180">run</text>
<text x="284" y="180">Server</text>
<text x="184" y="196">artifacts</text>
</g>
</svg>
