<svg xmlns="http://www.w3.org/2000/svg" version="1.1" height="448" width="696" viewBox="0 0 696 448" class="diagram" text-anchor="middle" font-family="monospace" font-size="13px">
<path d="M 8,208 L 8,256" fill="none" stroke="black"/>
<path d="M 8,288 L 8,336" fill="none" stroke="black"/>
<path d="M 16,32 L 16,64" fill="none" stroke="black"/>
<path d="M 32,16 L 32,32" fill="none" stroke="black"/>
<path d="M 160,64 L 160,144" fill="none" stroke="black"/>
<path d="M 160,208 L 160,256" fill="none" stroke="black"/>
<path d="M 160,288 L 160,336" fill="none" stroke="black"/>
<path d="M 160,400 L 160,432" fill="none" stroke="black"/>
<path d="M 200,336 L 200,400" fill="none" stroke="black"/>
<path d="M 216,16 L 216,64" fill="none" stroke="black"/>
<path d="M 232,400 L 232,432" fill="none" stroke="black"/>
<path d="M 256,400 L 256,432" fill="none" stroke="black"/>
<path d="M 296,16 L 296,64" fill="none" stroke="black"/>
<path d="M 344,400 L 344,432" fill="none" stroke="black"/>
<path d="M 360,64 L 360,144" fill="none" stroke="black"/>
<path d="M 360,208 L 360,256" fill="none" stroke="black"/>
<path d="M 368,400 L 368,432" fill="none" stroke="black"/>
<path d="M 400,336 L 400,400" fill="none" stroke="black"/>
<path d="M 440,400 L 440,432" fill="none" stroke="black"/>
<path d="M 480,16 L 480,32" fill="none" stroke="black"/>
<path d="M 496,32 L 496,64" fill="none" stroke="black"/>
<path d="M 496,208 L 496,224" fill="none" stroke="black"/>
<path d="M 512,224 L 512,256" fill="none" stroke="black"/>
<path d="M 520,112 L 520,160" fill="none" stroke="black"/>
<path d="M 672,112 L 672,160" fill="none" stroke="black"/>
<path d="M 32,16 L 216,16" fill="none" stroke="black"/>
<path d="M 296,16 L 480,16" fill="none" stroke="black"/>
<path d="M 16,32 L 32,32" fill="none" stroke="black"/>
<path d="M 480,32 L 496,32" fill="none" stroke="black"/>
<path d="M 16,64 L 496,64" fill="none" stroke="black"/>
<path d="M 376,112 L 504,112" fill="none" stroke="black"/>
<path d="M 520,112 L 672,112" fill="none" stroke="black"/>
<path d="M 520,160 L 672,160" fill="none" stroke="black"/>
<path d="M 8,208 L 160,208" fill="none" stroke="black"/>
<path d="M 360,208 L 496,208" fill="none" stroke="black"/>
<path d="M 496,224 L 512,224" fill="none" stroke="black"/>
<path d="M 8,256 L 160,256" fill="none" stroke="black"/>
<path d="M 360,256 L 512,256" fill="none" stroke="black"/>
<path d="M 8,288 L 160,288" fill="none" stroke="black"/>
<path d="M 8,336 L 160,336" fill="none" stroke="black"/>
<path d="M 200,336 L 400,336" fill="none" stroke="black"/>
<path d="M 144,368 L 192,368" fill="none" stroke="black"/>
<path d="M 160,400 L 440,400" fill="none" stroke="black"/>
<path d="M 160,432 L 232,432" fill="none" stroke="black"/>
<path d="M 256,432 L 344,432" fill="none" stroke="black"/>
<path d="M 368,432 L 440,432" fill="none" stroke="black"/>
<path d="M 132,344 L 144,368" fill="none" stroke="black"/>
<path d="M 336,160 L 352,192" fill="none" stroke="black"/>
<path d="M 168,192 L 184,160" fill="none" stroke="black"/>
<path d="M 388,328 L 420,264" fill="none" stroke="black"/>
<path d="M 32,16 C 23.16936,16 16,23.16936 16,32" fill="none" stroke="black"/>
<path d="M 480,16 C 488.83064,16 496,23.16936 496,32" fill="none" stroke="black"/>
<path d="M 496,208 C 504.83064,208 512,215.16936 512,224" fill="none" stroke="black"/>
<polygon class="arrowhead" points="512,112 500,106.4 500,117.6" fill="black" transform="rotate(0,504,112)"/>
<polygon class="arrowhead" points="428,264 416,258.4 416,269.6" fill="black" transform="rotate(296.565051177078,420,264)"/>
<polygon class="arrowhead" points="360,192 348,186.4 348,197.6" fill="black" transform="rotate(63.43494882292201,352,192)"/>
<polygon class="arrowhead" points="200,368 188,362.4 188,373.6" fill="black" transform="rotate(0,192,368)"/>
<polygon class="arrowhead" points="176,192 164,186.4 164,197.6" fill="black" transform="rotate(116.56505117707799,168,192)"/>
<g class="text">
<text x="120" y="36">Scheduled Artifacts</text>
<text x="376" y="36">client_events</text>
<text x="268" y="100">DataCollection</text>
<text x="592" y="132">Garbage</text>
<text x="260" y="148">────────────────────────</text>
<text x="604" y="148">Collection</text>
<text x="84" y="228">Metadata</text>
<text x="424" y="228">SIEM Export</text>
<text x="80" y="276">|</text>
<text x="76" y="308">Labels</text>
<text x="300" y="372">Auto-Hunting</text>
<text x="184" y="420">IoC</text>
<text x="296" y="420">Integrity</text>
<text x="404" y="420">SOAR</text>
</g>
</svg>
